# xmcd CD database file
#
# Track frame offsets:
#	150
#	18093
#	53330
#	88371
#	111124
#	148163
#	166673
#	188285
#	208490
#	222124
#	239726
#	253416
#	265754
#
# Disc length: 3785 seconds
#
# Revision: 0
# Processed by: cddbd v1.5.2PL0 Copyright (c) Steve Scherf et al.
# Submitted via: CDex 2.01
#
DISCID=b90ec70d
DTITLE=Babel and the Goodmen - Babel and the Goodmen
DYEAR=1995
DGENRE=Jazz
TTITLE0=Trumpet Blues
TTITLE1=Cantaloupe Island
TTITLE2=Hearland
TTITLE3=Sing Sing Sing
TTITLE4=Greasy Greens
TTITLE5=Joy Spring
TTITLE6=Is You Is Or Is You Ain't My Baby
TTITLE7=In The Mood
TTITLE8=Big Spender
TTITLE9=Mustang Sally
TTITLE10=Sweet Transvestite
TTITLE11=Eddie's Teddy
TTITLE12=Time Warp
EXTD=YEAR: 1995
EXTT0=
EXTT1=
EXTT2=
EXTT3=
EXTT4=
EXTT5=
EXTT6=
EXTT7=
EXTT8=
EXTT9=
EXTT10=
EXTT11=
EXTT12=
PLAYORDER=
